{
  "accessors": [
    {
      "bufferView": 2,
      "componentType": 5126,
      "count": 1639,
      "max": [
        4.224286079406738,
        0.8416219353675842,
        6.76732873916626
      ],
      "min": [
        -4.224286079406738,
        -8.04180908203125,
        -1.2484608888626099
      ],
      "type": "VEC3"
    },
    {
      "bufferView": 2,
      "byteOffset": 19668,
      "componentType": 5126,
      "count": 1639,
      "max": [
        0.9988883137702942,
        0.999966561794281,
        0.9997791051864624
      ],
      "min": [
        -0.9988883137702942,
        -0.9991563558578491,
        -0.9988920092582703
      ],
      "type": "VEC3"
    },
    {
      "bufferView": 3,
      "componentType": 5126,
      "count": 1639,
      "max": [
        1.0,
        0.9989464282989502,
        0.9996646642684937,
        1.0
      ],
      "min": [
        -1.0,
        -0.9999374151229858,
        -0.9994648694992065,
        1.0
      ],
      "type": "VEC4"
    },
    {
      "bufferView": 1,
      "componentType": 5126,
      "count": 1639,
      "max": [
        0.9970155358314514,
        0.9951117634773254
      ],
      "min": [
        0.002903670072555542,
        0.005536496639251709
      ],
      "type": "VEC2"
    },
    {
      "bufferView": 0,
      "componentType": 5125,
      "count": 8118,
      "type": "SCALAR"
    }
  ],
  "asset": {
    "extras": {
      "author": "Lukas Boban (https://sketchfab.com/LukasBoban)",
      "license": "CC-BY-4.0 (http://creativecommons.org/licenses/by/4.0/)",
      "source": "https://sketchfab.com/3d-models/cute-bear-armchairsofa-lp-stylized-b8d41604049948868c63fa9aad2a5bbb",
      "title": "Cute Bear Armchair/Sofa ( LP ) ( Stylized )"
    },
    "generator": "Sketchfab-13.41.0",
    "version": "2.0"
  },
  "bufferViews": [
    {
      "buffer": 0,
      "byteLength": 32472,
      "name": "floatBufferViews",
      "target": 34963
    },
    {
      "buffer": 0,
      "byteLength": 13112,
      "byteOffset": 32472,
      "byteStride": 8,
      "name": "floatBufferViews",
      "target": 34962
    },
    {
      "buffer": 0,
      "byteLength": 39336,
      "byteOffset": 45584,
      "byteStride": 12,
      "name": "floatBufferViews",
      "target": 34962
    },
    {
      "buffer": 0,
      "byteLength": 26224,
      "byteOffset": 84920,
      "byteStride": 16,
      "name": "floatBufferViews",
      "target": 34962
    }
  ],
  "buffers": [
    {
      "byteLength": 111144,
      "uri": "scene.bin"
    }
  ],
  "images": [
    {
      "uri": "textures/Mat_Cute_Bear_Sofa_baseColor.png"
    },
    {
      "uri": "textures/Mat_Cute_Bear_Sofa_metallicRoughness.png"
    },
    {
      "uri": "textures/Mat_Cute_Bear_Sofa_normal.png"
    }
  ],
  "materials": [
    {
      "doubleSided": true,
      "name": "Mat_Cute_Bear_Sofa",
      "normalTexture": {
        "index": 2
      },
      "occlusionTexture": {
        "index": 1
      },
      "pbrMetallicRoughness": {
        "baseColorTexture": {
          "index": 0
        },
        "metallicRoughnessTexture": {
          "index": 1
        }
      }
    }
  ],
  "meshes": [
    {
      "name": "Cute_Bear_Sofa___LP_____Stylized___Mat_Cute_Bear_Sofa_0",
      "primitives": [
        {
          "attributes": {
            "NORMAL": 1,
            "POSITION": 0,
            "TANGENT": 2,
            "TEXCOORD_0": 3
          },
          "indices": 4,
          "material": 0,
          "mode": 4
        }
      ]
    }
  ],
  "nodes": [
    {
      "children": [
        1
      ],
      "matrix": [
        1.0,
        0.0,
        0.0,
        0.0,
        0.0,
        2.220446049250313e-16,
        -1.0,
        0.0,
        0.0,
        1.0,
        2.220446049250313e-16,
        0.0,
        0.0,
        0.0,
        0.0,
        1.0
      ],
      "name": "Sketchfab_model"
    },
    {
      "children": [
        2
      ],
      "matrix": [
        1.0,
        0.0,
        0.0,
        0.0,
        0.0,
        0.0,
        1.0,
        0.0,
        0.0,
        -1.0,
        0.0,
        0.0,
        0.0,
        0.0,
        0.0,
        1.0
      ],
      "name": "e126f378b18f4ac9ba97577466b49d17.fbx"
    },
    {
      "children": [
        3
      ],
      "name": "RootNode"
    },
    {
      "children": [
        4
      ],
      "matrix": [
        0.009999999776482582,
        0.0,
        0.0,
        0.0,
        0.0,
        0.009999999776482582,
        0.0,
        0.0,
        0.0,
        0.0,
        0.009999999776482582,
        0.0,
        0.0,
        0.08035995811223984,
        -0.026923857629299164,
        1.0
      ],
      "name": "Cute_Bear_Sofa___LP_____Stylized__"
    },
    {
      "mesh": 0,
      "name": "Cute_Bear_Sofa___LP_____Stylized___Mat_Cute_Bear_Sofa_0"
    }
  ],
  "samplers": [
    {
      "magFilter": 9729,
      "minFilter": 9987,
      "wrapS": 10497,
      "wrapT": 10497
    }
  ],
  "scene": 0,
  "scenes": [
    {
      "name": "Sketchfab_Scene",
      "nodes": [
        0
      ]
    }
  ],
  "textures": [
    {
      "sampler": 0,
      "source": 0
    },
    {
      "sampler": 0,
      "source": 1
    },
    {
      "sampler": 0,
      "source": 2
    }
  ]
}
