{
  "accessors": [
    {
      "bufferView": 2,
      "componentType": 5126,
      "count": 808,
      "max": [
        8.599634170532227,
        5.342794895172119,
        7.701550006866455
      ],
      "min": [
        -8.599634170532227,
        -5.342794895172119,
        -7.701550006866455
      ],
      "type": "VEC3"
    },
    {
      "bufferView": 2,
      "byteOffset": 9696,
      "componentType": 5126,
      "count": 808,
      "max": [
        1.0,
        1.0,
        1.0
      ],
      "min": [
        -1.0,
        -1.0,
        -1.0
      ],
      "type": "VEC3"
    },
    {
      "bufferView": 1,
      "componentType": 5126,
      "count": 808,
      "max": [
        0.9939789772033691,
        0.9950159788131714
      ],
      "min": [
        0.004616999998688698,
        0.005470000207424164
      ],
      "type": "VEC2"
    },
    {
      "bufferView": 0,
      "componentType": 5125,
      "count": 1212,
      "type": "SCALAR"
    },
    {
      "bufferView": 2,
      "byteOffset": 19392,
      "componentType": 5126,
      "count": 1089,
      "max": [
        7.982675075531006,
        5.012911796569824,
        -1.4111369848251343
      ],
      "min": [
        -5.5082831382751465,
        -5.126033782958984,
        -4.211421966552734
      ],
      "type": "VEC3"
    },
    {
      "bufferView": 2,
      "byteOffset": 32460,
      "componentType": 5126,
      "count": 1089,
      "max": [
        0.9918439984321594,
        0.9996986985206604,
        1.0
      ],
      "min": [
        -0.26841655373573303,
        -0.9999009370803833,
        -0.05109773948788643
      ],
      "type": "VEC3"
    },
    {
      "bufferView": 1,
      "byteOffset": 6464,
      "componentType": 5126,
      "count": 1089,
      "max": [
        0.815858006477356,
        0.9999099969863892
      ],
      "min": [
        9.000000136438757e-05,
        9.000000136438757e-05
      ],
      "type": "VEC2"
    },
    {
      "bufferView": 0,
      "byteOffset": 4848,
      "componentType": 5125,
      "count": 6144,
      "type": "SCALAR"
    },
    {
      "bufferView": 2,
      "byteOffset": 45528,
      "componentType": 5126,
      "count": 1089,
      "max": [
        7.982675075531006,
        5.156280040740967,
        7.511220932006836
      ],
      "min": [
        -5.50828218460083,
        -4.982666015625,
        4.710936069488525
      ],
      "type": "VEC3"
    },
    {
      "bufferView": 2,
      "byteOffset": 58596,
      "componentType": 5126,
      "count": 1089,
      "max": [
        0.9918439984321594,
        0.9999009370803833,
        1.0
      ],
      "min": [
        -0.26841655373573303,
        -0.9996986985206604,
        -0.05109773948788643
      ],
      "type": "VEC3"
    },
    {
      "bufferView": 1,
      "byteOffset": 15176,
      "componentType": 5126,
      "count": 1089,
      "max": [
        0.815858006477356,
        0.9999099969863892
      ],
      "min": [
        9.000000136438757e-05,
        9.000000136438757e-05
      ],
      "type": "VEC2"
    },
    {
      "bufferView": 0,
      "byteOffset": 29424,
      "componentType": 5125,
      "count": 6144,
      "type": "SCALAR"
    },
    {
      "bufferView": 2,
      "byteOffset": 71664,
      "componentType": 5126,
      "count": 82,
      "max": [
        8.21131420135498,
        4.777287006378174,
        5.823360919952393
      ],
      "min": [
        -8.21131420135498,
        -4.777287006378174,
        3.5306389331817627
      ],
      "type": "VEC3"
    },
    {
      "bufferView": 2,
      "byteOffset": 72648,
      "componentType": 5126,
      "count": 82,
      "max": [
        0.9672816395759583,
        0.9672816395759583,
        0.9672816395759583
      ],
      "min": [
        -0.9672816395759583,
        -0.9672816395759583,
        -0.9672816395759583
      ],
      "type": "VEC3"
    },
    {
      "bufferView": 1,
      "byteOffset": 23888,
      "componentType": 5126,
      "count": 82,
      "max": [
        0.995809018611908,
        0.5568060278892517
      ],
      "min": [
        0.019940000027418137,
        0.10734400153160095
      ],
      "type": "VEC2"
    },
    {
      "bufferView": 0,
      "byteOffset": 54000,
      "componentType": 5125,
      "count": 324,
      "type": "SCALAR"
    },
    {
      "bufferView": 2,
      "byteOffset": 73632,
      "componentType": 5126,
      "count": 1322,
      "max": [
        -3.5508980751037598,
        4.847990989685059,
        -1.3332669734954834
      ],
      "min": [
        -7.607176780700684,
        -4.6899189949035645,
        -3.173229932785034
      ],
      "type": "VEC3"
    },
    {
      "bufferView": 2,
      "byteOffset": 89496,
      "componentType": 5126,
      "count": 1322,
      "max": [
        0.9997969269752502,
        0.9930697083473206,
        0.9999312162399292
      ],
      "min": [
        -0.9996492266654968,
        -0.9943791627883911,
        -0.9998529553413391
      ],
      "type": "VEC3"
    },
    {
      "bufferView": 1,
      "byteOffset": 24544,
      "componentType": 5126,
      "count": 1322,
      "max": [
        0.861732006072998,
        0.9998090267181396
      ],
      "min": [
        0.00019099999917671084,
        0.00019099999917671084
      ],
      "type": "VEC2"
    },
    {
      "bufferView": 0,
      "byteOffset": 55296,
      "componentType": 5125,
      "count": 6912,
      "type": "SCALAR"
    },
    {
      "bufferView": 2,
      "byteOffset": 105360,
      "componentType": 5126,
      "count": 1322,
      "max": [
        -3.5508980751037598,
        4.720164775848389,
        7.589089870452881
      ],
      "min": [
        -7.607176780700684,
        -4.817745208740234,
        5.7491278648376465
      ],
      "type": "VEC3"
    },
    {
      "bufferView": 2,
      "byteOffset": 121224,
      "componentType": 5126,
      "count": 1322,
      "max": [
        0.9997969269752502,
        0.9943791627883911,
        0.9999312162399292
      ],
      "min": [
        -0.9996492266654968,
        -0.9930697083473206,
        -0.9998529553413391
      ],
      "type": "VEC3"
    },
    {
      "bufferView": 1,
      "byteOffset": 35120,
      "componentType": 5126,
      "count": 1322,
      "max": [
        0.8614739775657654,
        0.9998090267181396
      ],
      "min": [
        0.00019099999917671084,
        0.00019099999917671084
      ],
      "type": "VEC2"
    },
    {
      "bufferView": 0,
      "byteOffset": 82944,
      "componentType": 5125,
      "count": 6912,
      "type": "SCALAR"
    },
    {
      "bufferView": 2,
      "byteOffset": 137088,
      "componentType": 5126,
      "count": 82,
      "max": [
        8.21131420135498,
        4.777287006378174,
        -3.1236350536346436
      ],
      "min": [
        -8.21131420135498,
        -4.777287006378174,
        -5.416357040405273
      ],
      "type": "VEC3"
    },
    {
      "bufferView": 2,
      "byteOffset": 138072,
      "componentType": 5126,
      "count": 82,
      "max": [
        0.9672816395759583,
        0.9672816395759583,
        0.9672816395759583
      ],
      "min": [
        -0.9672816395759583,
        -0.9672816395759583,
        -0.9672816395759583
      ],
      "type": "VEC3"
    },
    {
      "bufferView": 1,
      "byteOffset": 45696,
      "componentType": 5126,
      "count": 82,
      "max": [
        0.995809018611908,
        0.5568060278892517
      ],
      "min": [
        0.019940000027418137,
        0.10734400153160095
      ],
      "type": "VEC2"
    },
    {
      "bufferView": 0,
      "byteOffset": 110592,
      "componentType": 5125,
      "count": 324,
      "type": "SCALAR"
    }
  ],
  "asset": {
    "extras": {
      "author": "Blender3D (https://sketchfab.com/Blender3D)",
      "license": "CC-BY-4.0 (http://creativecommons.org/licenses/by/4.0/)",
      "source": "https://sketchfab.com/3d-models/simple-bunk-bed-9fb7c54715dd41b98b3dc67b367cf81d",
      "title": "Simple Bunk Bed"
    },
    "generator": "Sketchfab-12.66.0",
    "version": "2.0"
  },
  "bufferViews": [
    {
      "buffer": 0,
      "byteLength": 111888,
      "name": "floatBufferViews",
      "target": 34963
    },
    {
      "buffer": 0,
      "byteLength": 46352,
      "byteOffset": 111888,
      "byteStride": 8,
      "name": "floatBufferViews",
      "target": 34962
    },
    {
      "buffer": 0,
      "byteLength": 139056,
      "byteOffset": 158240,
      "byteStride": 12,
      "name": "floatBufferViews",
      "target": 34962
    }
  ],
  "buffers": [
    {
      "byteLength": 297296,
      "uri": "scene.bin"
    }
  ],
  "extensionsRequired": [
    "KHR_materials_pbrSpecularGlossiness"
  ],
  "extensionsUsed": [
    "KHR_materials_pbrSpecularGlossiness"
  ],
  "images": [
    {
      "uri": "textures/None_diffuse.jpeg"
    },
    {
      "uri": "textures/None_occlusion.png"
    },
    {
      "uri": "textures/None_Blanket_Bottom_Diffuse_diffuse.jpeg"
    },
    {
      "uri": "textures/None_Blanket_Bottom_Diffuse_occlusion.png"
    },
    {
      "uri": "textures/None_Blanket_Top_Diffuse_diffuse.jpeg"
    },
    {
      "uri": "textures/None_Blanket_Top_Diffuse_occlusion.png"
    },
    {
      "uri": "textures/None_Matress_Top_Diffuse_diffuse.jpeg"
    },
    {
      "uri": "textures/None_Matress_Top_Diffuse_occlusion.png"
    },
    {
      "uri": "textures/None_Pillows_Bottom_Diffuse_diffuse.jpeg"
    },
    {
      "uri": "textures/None_Pillows_Bottom_Diffuse_occlusion.png"
    },
    {
      "uri": "textures/None_Pillows_Top_Diffuse_diffuse.jpeg"
    },
    {
      "uri": "textures/None_Pillows_Top_Diffuse_occlusion.png"
    },
    {
      "uri": "textures/None_Untitled_diffuse.jpeg"
    },
    {
      "uri": "textures/None_Untitled_occlusion.png"
    }
  ],
  "materials": [
    {
      "doubleSided": true,
      "extensions": {
        "KHR_materials_pbrSpecularGlossiness": {
          "diffuseFactor": [
            1.0,
            1.0,
            1.0,
            1.0
          ],
          "diffuseTexture": {
            "index": 0
          },
          "glossinessFactor": 0.0,
          "specularFactor": [
            0.05,
            0.05,
            0.05
          ]
        }
      },
      "name": "None",
      "occlusionTexture": {
        "index": 1
      }
    },
    {
      "doubleSided": true,
      "extensions": {
        "KHR_materials_pbrSpecularGlossiness": {
          "diffuseFactor": [
            1.0,
            1.0,
            1.0,
            1.0
          ],
          "diffuseTexture": {
            "index": 2
          },
          "glossinessFactor": 0.0,
          "specularFactor": [
            0.05,
            0.05,
            0.05
          ]
        }
      },
      "name": "None_Blanket_Bottom_Diffuse",
      "occlusionTexture": {
        "index": 3
      }
    },
    {
      "doubleSided": true,
      "extensions": {
        "KHR_materials_pbrSpecularGlossiness": {
          "diffuseFactor": [
            1.0,
            1.0,
            1.0,
            1.0
          ],
          "diffuseTexture": {
            "index": 4
          },
          "glossinessFactor": 0.0,
          "specularFactor": [
            0.05,
            0.05,
            0.05
          ]
        }
      },
      "name": "None_Blanket_Top_Diffuse",
      "occlusionTexture": {
        "index": 5
      }
    },
    {
      "doubleSided": true,
      "extensions": {
        "KHR_materials_pbrSpecularGlossiness": {
          "diffuseFactor": [
            1.0,
            1.0,
            1.0,
            1.0
          ],
          "diffuseTexture": {
            "index": 6
          },
          "glossinessFactor": 0.0,
          "specularFactor": [
            0.05,
            0.05,
            0.05
          ]
        }
      },
      "name": "None_Matress_Top_Diffuse",
      "occlusionTexture": {
        "index": 7
      }
    },
    {
      "doubleSided": true,
      "extensions": {
        "KHR_materials_pbrSpecularGlossiness": {
          "diffuseFactor": [
            1.0,
            1.0,
            1.0,
            1.0
          ],
          "diffuseTexture": {
            "index": 8
          },
          "glossinessFactor": 0.0,
          "specularFactor": [
            0.05,
            0.05,
            0.05
          ]
        }
      },
      "name": "None_Pillows_Bottom_Diffuse",
      "occlusionTexture": {
        "index": 9
      }
    },
    {
      "doubleSided": true,
      "extensions": {
        "KHR_materials_pbrSpecularGlossiness": {
          "diffuseFactor": [
            1.0,
            1.0,
            1.0,
            1.0
          ],
          "diffuseTexture": {
            "index": 10
          },
          "glossinessFactor": 0.0,
          "specularFactor": [
            0.05,
            0.05,
            0.05
          ]
        }
      },
      "name": "None_Pillows_Top_Diffuse",
      "occlusionTexture": {
        "index": 11
      }
    },
    {
      "doubleSided": true,
      "extensions": {
        "KHR_materials_pbrSpecularGlossiness": {
          "diffuseFactor": [
            1.0,
            1.0,
            1.0,
            1.0
          ],
          "diffuseTexture": {
            "index": 12
          },
          "glossinessFactor": 0.0,
          "specularFactor": [
            0.05,
            0.05,
            0.05
          ]
        }
      },
      "name": "None_Untitled",
      "occlusionTexture": {
        "index": 13
      }
    }
  ],
  "meshes": [
    {
      "name": "Object_0",
      "primitives": [
        {
          "attributes": {
            "NORMAL": 1,
            "POSITION": 0,
            "TEXCOORD_0": 2
          },
          "indices": 3,
          "material": 0,
          "mode": 4
        }
      ]
    },
    {
      "name": "Object_1",
      "primitives": [
        {
          "attributes": {
            "NORMAL": 5,
            "POSITION": 4,
            "TEXCOORD_0": 6
          },
          "indices": 7,
          "material": 1,
          "mode": 4
        }
      ]
    },
    {
      "name": "Object_2",
      "primitives": [
        {
          "attributes": {
            "NORMAL": 9,
            "POSITION": 8,
            "TEXCOORD_0": 10
          },
          "indices": 11,
          "material": 2,
          "mode": 4
        }
      ]
    },
    {
      "name": "Object_3",
      "primitives": [
        {
          "attributes": {
            "NORMAL": 13,
            "POSITION": 12,
            "TEXCOORD_0": 14
          },
          "indices": 15,
          "material": 3,
          "mode": 4
        }
      ]
    },
    {
      "name": "Object_4",
      "primitives": [
        {
          "attributes": {
            "NORMAL": 17,
            "POSITION": 16,
            "TEXCOORD_0": 18
          },
          "indices": 19,
          "material": 4,
          "mode": 4
        }
      ]
    },
    {
      "name": "Object_5",
      "primitives": [
        {
          "attributes": {
            "NORMAL": 21,
            "POSITION": 20,
            "TEXCOORD_0": 22
          },
          "indices": 23,
          "material": 5,
          "mode": 4
        }
      ]
    },
    {
      "name": "Object_6",
      "primitives": [
        {
          "attributes": {
            "NORMAL": 25,
            "POSITION": 24,
            "TEXCOORD_0": 26
          },
          "indices": 27,
          "material": 6,
          "mode": 4
        }
      ]
    }
  ],
  "nodes": [
    {
      "children": [
        1
      ],
      "matrix": [
        1.0,
        0.0,
        0.0,
        0.0,
        0.0,
        2.220446049250313e-16,
        -1.0,
        0.0,
        0.0,
        1.0,
        2.220446049250313e-16,
        0.0,
        0.0,
        0.0,
        0.0,
        1.0
      ],
      "name": "Sketchfab_model"
    },
    {
      "children": [
        2,
        3,
        4,
        5,
        6,
        7,
        8
      ],
      "name": "Bunk Bed.obj.cleaner.materialmerger.gles"
    },
    {
      "mesh": 0,
      "name": "Object_2"
    },
    {
      "mesh": 1,
      "name": "Object_3"
    },
    {
      "mesh": 2,
      "name": "Object_4"
    },
    {
      "mesh": 3,
      "name": "Object_5"
    },
    {
      "mesh": 4,
      "name": "Object_6"
    },
    {
      "mesh": 5,
      "name": "Object_7"
    },
    {
      "mesh": 6,
      "name": "Object_8"
    }
  ],
  "samplers": [
    {
      "magFilter": 9729,
      "minFilter": 9987,
      "wrapS": 10497,
      "wrapT": 10497
    }
  ],
  "scene": 0,
  "scenes": [
    {
      "name": "Sketchfab_Scene",
      "nodes": [
        0
      ]
    }
  ],
  "textures": [
    {
      "sampler": 0,
      "source": 0
    },
    {
      "sampler": 0,
      "source": 1
    },
    {
      "sampler": 0,
      "source": 2
    },
    {
      "sampler": 0,
      "source": 3
    },
    {
      "sampler": 0,
      "source": 4
    },
    {
      "sampler": 0,
      "source": 5
    },
    {
      "sampler": 0,
      "source": 6
    },
    {
      "sampler": 0,
      "source": 7
    },
    {
      "sampler": 0,
      "source": 8
    },
    {
      "sampler": 0,
      "source": 9
    },
    {
      "sampler": 0,
      "source": 10
    },
    {
      "sampler": 0,
      "source": 11
    },
    {
      "sampler": 0,
      "source": 12
    },
    {
      "sampler": 0,
      "source": 13
    }
  ]
}
