{
  "accessors": [
    {
      "bufferView": 2,
      "componentType": 5126,
      "count": 65532,
      "max": [
        2.7742600440979004,
        1.3511300086975098,
        2.4985499382019043
      ],
      "min": [
        -3.4910199642181396,
        -2.125159978866577,
        -0.09405999630689621
      ],
      "type": "VEC3"
    },
    {
      "bufferView": 2,
      "byteOffset": 786384,
      "componentType": 5126,
      "count": 65532,
      "max": [
        0.9999973773956299,
        0.9987859725952148,
        0.9999999403953552
      ],
      "min": [
        -0.999981701374054,
        -0.9999993443489075,
        -0.9999985694885254
      ],
      "type": "VEC3"
    },
    {
      "bufferView": 1,
      "componentType": 5126,
      "count": 65532,
      "max": [
        0.9977859854698181,
        0.995822012424469
      ],
      "min": [
        0.002093000104650855,
        0.041517000645399094
      ],
      "type": "VEC2"
    },
    {
      "bufferView": 0,
      "componentType": 5125,
      "count": 280908,
      "type": "SCALAR"
    },
    {
      "bufferView": 2,
      "byteOffset": 1572768,
      "componentType": 5126,
      "count": 58273,
      "max": [
        2.7742600440979004,
        1.3511300086975098,
        2.4985499382019043
      ],
      "min": [
        -3.4910199642181396,
        -2.125159978866577,
        -0.09405999630689621
      ],
      "type": "VEC3"
    },
    {
      "bufferView": 2,
      "byteOffset": 2272044,
      "componentType": 5126,
      "count": 58273,
      "max": [
        0.9999973773956299,
        0.9987859725952148,
        0.9999997019767761
      ],
      "min": [
        -0.9999850392341614,
        -0.9999982714653015,
        -0.9999644756317139
      ],
      "type": "VEC3"
    },
    {
      "bufferView": 1,
      "byteOffset": 524256,
      "componentType": 5126,
      "count": 58273,
      "max": [
        0.9965969920158386,
        0.9958400130271912
      ],
      "min": [
        0.0020860000513494015,
        0.31393900513648987
      ],
      "type": "VEC2"
    },
    {
      "bufferView": 0,
      "byteOffset": 1123632,
      "componentType": 5125,
      "count": 298734,
      "type": "SCALAR"
    }
  ],
  "asset": {
    "extras": {
      "author": "yaro.pro (https://sketchfab.com/yaro.pro)",
      "license": "CC-BY-NC-SA-4.0 (http://creativecommons.org/licenses/by-nc-sa/4.0/)",
      "source": "https://sketchfab.com/3d-models/shelled-wall-05-17c6d1d4738e4bdeb51b4683d81db32b",
      "title": "Shelled wall 05"
    },
    "generator": "Sketchfab-13.42.0",
    "version": "2.0"
  },
  "bufferViews": [
    {
      "buffer": 0,
      "byteLength": 2318568,
      "name": "floatBufferViews",
      "target": 34963
    },
    {
      "buffer": 0,
      "byteLength": 990440,
      "byteOffset": 2318568,
      "byteStride": 8,
      "name": "floatBufferViews",
      "target": 34962
    },
    {
      "buffer": 0,
      "byteLength": 2971320,
      "byteOffset": 3309008,
      "byteStride": 12,
      "name": "floatBufferViews",
      "target": 34962
    }
  ],
  "buffers": [
    {
      "byteLength": 6280328,
      "uri": "scene.bin"
    }
  ],
  "extensionsUsed": [
    "KHR_materials_unlit"
  ],
  "images": [
    {
      "uri": "textures/main_baseColor.jpeg"
    }
  ],
  "materials": [
    {
      "doubleSided": true,
      "extensions": {
        "KHR_materials_unlit": {}
      },
      "name": "main",
      "pbrMetallicRoughness": {
        "baseColorTexture": {
          "index": 0
        },
        "metallicFactor": 0.0
      }
    }
  ],
  "meshes": [
    {
      "name": "Object_0",
      "primitives": [
        {
          "attributes": {
            "NORMAL": 1,
            "POSITION": 0,
            "TEXCOORD_0": 2
          },
          "indices": 3,
          "material": 0,
          "mode": 4
        }
      ]
    },
    {
      "name": "Object_1",
      "primitives": [
        {
          "attributes": {
            "NORMAL": 5,
            "POSITION": 4,
            "TEXCOORD_0": 6
          },
          "indices": 7,
          "material": 0,
          "mode": 4
        }
      ]
    }
  ],
  "nodes": [
    {
      "children": [
        1
      ],
      "matrix": [
        1.0,
        0.0,
        0.0,
        0.0,
        0.0,
        2.220446049250313e-16,
        -1.0,
        0.0,
        0.0,
        1.0,
        2.220446049250313e-16,
        0.0,
        0.0,
        0.0,
        0.0,
        1.0
      ],
      "name": "Sketchfab_model"
    },
    {
      "children": [
        2,
        3
      ],
      "name": "Scaniverse.obj.cleaner.materialmerger.gles"
    },
    {
      "mesh": 0,
      "name": "Object_2"
    },
    {
      "mesh": 1,
      "name": "Object_3"
    }
  ],
  "samplers": [
    {
      "magFilter": 9729,
      "minFilter": 9987,
      "wrapS": 10497,
      "wrapT": 10497
    }
  ],
  "scene": 0,
  "scenes": [
    {
      "name": "Sketchfab_Scene",
      "nodes": [
        0
      ]
    }
  ],
  "textures": [
    {
      "sampler": 0,
      "source": 0
    }
  ]
}
